<svg width="800" height="1000" viewBox="0 0 800 1000" fill="none" xmlns="http://www.w3.org/2000/svg">
  <rect width="800" height="1000" rx="48" fill="url(#bg2)"/>
  <circle cx="148" cy="164" r="130" fill="url(#glow2a)"/>
  <circle cx="638" cy="812" r="184" fill="url(#glow2b)"/>
  <rect x="168" y="166" width="404" height="504" rx="30" transform="rotate(-7 168 166)" fill="rgba(255,255,255,0.08)" stroke="rgba(255,255,255,0.2)"/>
  <rect x="202" y="222" width="338" height="330" rx="22" transform="rotate(-7 202 222)" fill="url(#card2a)"/>
  <rect x="254" y="278" width="228" height="96" rx="18" transform="rotate(-7 254 278)" fill="rgba(255,255,255,0.18)"/>
  <circle cx="384" cy="404" r="86" fill="rgba(255,255,255,0.12)"/>
  <path d="M348 394C364 374 395 378 403 401C410 381 440 374 456 392C474 412 470 444 403 498C333 443 328 418 348 394Z" fill="#FFF1FA"/>
  <rect x="282" y="620" width="348" height="430" rx="30" transform="rotate(8 282 620)" fill="rgba(255,255,255,0.08)" stroke="rgba(255,255,255,0.18)"/>
  <rect x="316" y="674" width="284" height="274" rx="24" transform="rotate(8 316 674)" fill="url(#card2b)"/>
  <circle cx="455" cy="799" r="92" fill="rgba(255,255,255,0.1)"/>
  <path d="M410 770C426 750 456 754 464 776C472 757 501 750 517 768C535 789 531 820 464 874C395 819 390 794 410 770Z" fill="#FFE9F6"/>
  <defs>
    <linearGradient id="bg2" x1="72" y1="66" x2="726" y2="944" gradientUnits="userSpaceOnUse">
      <stop stop-color="#31173A"/>
      <stop offset="0.5" stop-color="#1A1025"/>
      <stop offset="1" stop-color="#0A0913"/>
    </linearGradient>
    <radialGradient id="glow2a" cx="0" cy="0" r="1" gradientUnits="userSpaceOnUse" gradientTransform="translate(148 164) rotate(90) scale(130)">
      <stop stop-color="#FF9AD3" stop-opacity="0.45"/>
      <stop offset="1" stop-color="#FF9AD3" stop-opacity="0"/>
    </radialGradient>
    <radialGradient id="glow2b" cx="0" cy="0" r="1" gradientUnits="userSpaceOnUse" gradientTransform="translate(638 812) rotate(90) scale(184)">
      <stop stop-color="#B98BFF" stop-opacity="0.42"/>
      <stop offset="1" stop-color="#B98BFF" stop-opacity="0"/>
    </radialGradient>
    <linearGradient id="card2a" x1="224" y1="210" x2="518" y2="552" gradientUnits="userSpaceOnUse">
      <stop stop-color="#4D2758"/>
      <stop offset="1" stop-color="#24122D"/>
    </linearGradient>
    <linearGradient id="card2b" x1="332" y1="666" x2="600" y2="948" gradientUnits="userSpaceOnUse">
      <stop stop-color="#5D2C62"/>
      <stop offset="1" stop-color="#281336"/>
    </linearGradient>
  </defs>
</svg>
