<svg width="800" height="1000" viewBox="0 0 800 1000" fill="none" xmlns="http://www.w3.org/2000/svg">
  <rect width="800" height="1000" rx="48" fill="url(#bg1)"/>
  <g opacity="0.8">
    <circle cx="650" cy="170" r="120" fill="url(#sun1)"/>
    <circle cx="168" cy="780" r="210" fill="url(#orb1)"/>
    <circle cx="590" cy="760" r="170" fill="url(#orb2)"/>
  </g>
  <rect x="112" y="140" width="576" height="700" rx="40" fill="rgba(255,255,255,0.08)" stroke="rgba(255,255,255,0.18)"/>
  <rect x="152" y="196" width="496" height="436" rx="28" fill="url(#photo1)"/>
  <path d="M214 706C274 660 356 638 430 648C512 659 582 703 630 772V840H174V770C184 748 196 726 214 706Z" fill="url(#ground1)"/>
  <circle cx="312" cy="340" r="12" fill="#FFF3F9"/>
  <circle cx="348" cy="302" r="8" fill="#FFD7EE"/>
  <circle cx="500" cy="376" r="10" fill="#FFE7F6"/>
  <path d="M248 250C264 230 295 234 303 257C310 237 340 230 356 248C374 268 370 300 303 354C233 299 228 274 248 250Z" fill="#FFF2FA"/>
  <defs>
    <linearGradient id="bg1" x1="94" y1="56" x2="712" y2="956" gradientUnits="userSpaceOnUse">
      <stop stop-color="#2A143A"/>
      <stop offset="0.45" stop-color="#4B1E4E"/>
      <stop offset="1" stop-color="#130A1C"/>
    </linearGradient>
    <radialGradient id="sun1" cx="0" cy="0" r="1" gradientUnits="userSpaceOnUse" gradientTransform="translate(650 170) rotate(90) scale(120)">
      <stop stop-color="#FFD3EC"/>
      <stop offset="1" stop-color="#FFD3EC" stop-opacity="0"/>
    </radialGradient>
    <radialGradient id="orb1" cx="0" cy="0" r="1" gradientUnits="userSpaceOnUse" gradientTransform="translate(168 780) rotate(90) scale(210)">
      <stop stop-color="#FF93D2" stop-opacity="0.38"/>
      <stop offset="1" stop-color="#FF93D2" stop-opacity="0"/>
    </radialGradient>
    <radialGradient id="orb2" cx="0" cy="0" r="1" gradientUnits="userSpaceOnUse" gradientTransform="translate(590 760) rotate(90) scale(170)">
      <stop stop-color="#B98FFF" stop-opacity="0.38"/>
      <stop offset="1" stop-color="#B98FFF" stop-opacity="0"/>
    </radialGradient>
    <linearGradient id="photo1" x1="152" y1="196" x2="648" y2="632" gradientUnits="userSpaceOnUse">
      <stop stop-color="#5D2F66"/>
      <stop offset="1" stop-color="#24122C"/>
    </linearGradient>
    <linearGradient id="ground1" x1="174" y1="648" x2="630" y2="840" gradientUnits="userSpaceOnUse">
      <stop stop-color="#FF9DD8" stop-opacity="0.7"/>
      <stop offset="1" stop-color="#B887FF" stop-opacity="0.35"/>
    </linearGradient>
  </defs>
</svg>
